<?xml version="1.0" standalone="no"?>
<!DOCTYPE svg PUBLIC "-//W3C//DTD SVG 20010904//EN"
 "http://www.w3.org/TR/2001/REC-SVG-20010904/DTD/svg10.dtd">
<svg version="1.0" xmlns="http://www.w3.org/2000/svg"
 width="256.000000pt" height="256.000000pt" viewBox="0 0 256.000000 256.000000"
 preserveAspectRatio="xMidYMid meet">

<g transform="translate(0.000000,256.000000) scale(0.100000,-0.100000)"
fill="#000000" stroke="none">
<path d="M1125 2509 c-268 -28 -530 -155 -725 -349 -413 -413 -473 -1058 -143
-1552 59 -89 206 -239 294 -302 141 -99 330 -177 499 -207 96 -17 324 -17 420
0 169 30 358 108 499 207 88 63 235 213 294 302 284 426 283 970 -5 1389 -195
285 -524 476 -879 513 -112 11 -138 11 -254 -1z m255 -19 c497 -52 906 -400
1035 -881 145 -542 -107 -1117 -600 -1371 -192 -98 -331 -132 -550 -132 -210
-1 -346 30 -531 119 -155 75 -311 204 -425 351 -98 128 -194 340 -225 501 -23
118 -23 328 0 447 55 281 212 540 431 711 257 200 553 287 865 255z"/>
<path d="M1218 1978 c-69 -18 -128 -98 -128 -176 0 -39 29 -95 72 -139 29 -30
37 -44 27 -47 -8 -2 -54 -16 -104 -31 -49 -15 -135 -44 -190 -65 -55 -21 -117
-42 -138 -46 -22 -3 -58 -22 -80 -40 -23 -18 -76 -57 -117 -85 -135 -93 -233
-175 -328 -272 -104 -107 -100 -91 -55 -204 119 -305 384 -560 687 -663 81
-28 235 -64 242 -57 2 1 -3 28 -11 58 -35 134 -37 330 -4 452 l10 37 24 -29
c47 -55 140 -77 212 -50 43 16 630 606 644 646 12 37 -1 92 -27 113 -27 24
-13 30 65 30 97 0 223 -21 320 -55 41 -14 76 -25 78 -25 10 0 -23 216 -42 286
l-15 51 -122 13 c-68 8 -232 14 -365 14 l-242 1 -138 136 c-160 159 -184 171
-275 147z m129 -28 c46 -28 601 -590 614 -622 6 -15 8 -40 4 -55 -4 -18 -108
-130 -303 -326 -316 -316 -342 -337 -415 -323 -49 9 -99 45 -119 86 -20 40
-23 111 -7 143 6 12 70 82 142 155 l132 132 -324 0 c-277 0 -328 2 -357 16
-49 23 -77 67 -82 130 -4 44 0 61 21 97 45 76 50 77 413 77 l318 0 -131 133
c-80 80 -134 143 -138 160 -11 44 0 121 21 150 47 64 147 86 211 47z"/>
</g>
</svg>
