<?xml version="1.0" standalone="no"?>
<!DOCTYPE svg PUBLIC "-//W3C//DTD SVG 20010904//EN"
 "http://www.w3.org/TR/2001/REC-SVG-20010904/DTD/svg10.dtd">
<svg version="1.0" xmlns="http://www.w3.org/2000/svg"
 width="256.000000pt" height="256.000000pt" viewBox="0 0 256.000000 256.000000"
 preserveAspectRatio="xMidYMid meet">

<g transform="translate(0.000000,256.000000) scale(0.100000,-0.100000)"
fill="#000000" stroke="none">
<path d="M1125 2509 c-268 -28 -530 -155 -725 -349 -361 -361 -459 -920 -241
-1376 66 -138 138 -241 241 -344 416 -415 1069 -473 1557 -138 351 240 556
683 513 1108 -21 216 -92 413 -212 587 -195 285 -524 476 -879 513 -112 11
-138 11 -254 -1z m255 -19 c497 -52 906 -400 1035 -881 141 -529 -94 -1088
-569 -1354 -313 -175 -698 -199 -1032 -65 -248 99 -471 299 -602 540 -102 187
-146 358 -146 570 0 330 117 614 349 845 258 258 605 382 965 345z"/>
<path d="M1266 1975 c-30 -10 -107 -81 -310 -283 -218 -216 -287 -278 -351
-317 -44 -27 -114 -74 -155 -104 -75 -55 -284 -251 -301 -283 -22 -40 97 -281
203 -412 175 -218 438 -373 701 -414 46 -7 57 -7 53 4 -20 53 -38 185 -38 284
0 106 6 151 33 253 l10 39 57 -55 c32 -29 75 -60 96 -67 115 -37 236 48 236
167 0 64 -14 89 -110 193 -121 131 -130 126 205 135 240 6 263 8 300 28 89 49
115 143 70 251 -8 18 -4 19 101 14 106 -6 231 -31 308 -63 21 -9 40 -15 42
-12 12 11 -35 294 -54 323 -9 15 -163 31 -367 40 -145 6 -365 -4 -499 -22
l-49 -7 28 46 c62 107 13 234 -103 267 -47 13 -58 12 -106 -5z m151 -31 c44
-33 66 -70 71 -122 6 -70 -12 -98 -157 -239 l-126 -122 315 -1 c307 0 317 -1
360 -22 120 -61 118 -234 -4 -289 -37 -17 -70 -19 -351 -19 l-310 0 127 -127
c130 -131 148 -158 148 -219 0 -104 -97 -178 -201 -154 -42 10 -70 36 -347
313 -196 197 -303 312 -307 329 -4 16 -4 40 0 55 8 33 571 603 619 628 41 21
128 15 163 -11z"/>
</g>
</svg>
